<?xml version="1.0" encoding="UTF-8"?>
<svg xmlns="http://www.w3.org/2000/svg" xmlns:xlink="http://www.w3.org/1999/xlink" width="40px" height="40px" viewBox="0 0 40 40" version="1.1">
<g id="surface1">
<path style=" stroke:none;fill-rule:nonzero;fill:rgb(11.372549%,60.784314%,94.117647%);fill-opacity:1;" d="M 35.796875 10.058594 C 35.824219 10.480469 35.824219 10.90625 35.824219 11.335938 C 35.824219 24.421875 27.628906 39.511719 12.648438 39.511719 L 12.648438 39.503906 C 8.222656 39.511719 3.886719 37.96875 0.160156 35.066406 C 0.804688 35.160156 1.453125 35.207031 2.101562 35.207031 C 5.769531 35.210938 9.332031 33.714844 12.214844 30.960938 C 8.730469 30.878906 5.675781 28.117188 4.605469 24.085938 C 5.828125 24.371094 7.085938 24.3125 8.285156 23.914062 C 4.484375 22.980469 1.75 18.921875 1.75 14.207031 L 1.75 14.082031 C 2.882812 14.847656 4.148438 15.273438 5.445312 15.320312 C 1.867188 12.414062 0.765625 6.625 2.925781 2.101562 C 7.0625 8.285156 13.164062 12.046875 19.714844 12.445312 C 19.054688 9.007812 19.953125 5.402344 22.070312 2.984375 C 25.351562 -0.765625 30.507812 -0.574219 33.59375 3.414062 C 35.417969 2.976562 37.167969 2.164062 38.765625 1.011719 C 38.15625 3.300781 36.886719 5.25 35.183594 6.484375 C 36.800781 6.253906 38.378906 5.730469 39.863281 4.925781 C 38.769531 6.917969 37.390625 8.65625 35.796875 10.058594 Z M 35.796875 10.058594 "/>
</g>
</svg>
